<?xml version="1.0" encoding="UTF-8" standalone="no"?><!DOCTYPE svg PUBLIC "-//W3C//DTD SVG 1.1//EN" "http://www.w3.org/Graphics/SVG/1.1/DTD/svg11.dtd"><svg width="100%" height="100%" viewBox="0 0 305 204" version="1.1" xmlns="http://www.w3.org/2000/svg" xmlns:xlink="http://www.w3.org/1999/xlink" xml:space="preserve" xmlns:serif="http://www.serif.com/" style="fill-rule:evenodd;clip-rule:evenodd;stroke-linejoin:round;stroke-miterlimit:2;"><g><g><path d="M83.138,139.141c2.914,-4.28 9.652,-14.57 20.216,-30.87c9.015,-13.932 23.403,-34.011 43.163,-60.237c11.474,-15.207 21.855,-27.956 31.143,-38.246c5.555,-6.192 10.472,-9.288 14.752,-9.288c2.459,0 4.508,0.865 6.147,2.595c1.457,1.366 2.185,3.096 2.185,5.19c0,3.096 -1.867,7.968 -5.6,14.615c-0.728,1.366 -4.462,7.968 -11.201,19.806c-12.02,21.308 -20.17,36.516 -24.45,45.622c-11.747,24.951 -20.352,46.214 -25.816,63.788c-3.187,10.472 -4.781,18.167 -4.781,23.084c0,1.093 0.091,2.231 0.273,3.415c0.455,3.551 0.683,5.646 0.683,6.283c0,2.641 -1.002,5.099 -3.005,7.376c-1.73,2.094 -3.688,3.142 -5.873,3.142c-2.55,0 -4.644,-1.503 -6.283,-4.508c-1.366,-2.277 -2.049,-5.464 -2.049,-9.561c0,-25.77 21.49,-76.4 64.471,-151.89c-22.492,24.04 -47.397,58.461 -74.716,103.263c-6.01,9.744 -10.973,16.345 -14.889,19.806c-3.825,3.369 -7.467,5.054 -10.927,5.054c-3.46,0 -6.01,-1.503 -7.649,-4.508c-1.093,-2.003 -1.639,-4.325 -1.639,-6.966c0,-22.765 13.523,-58.598 40.568,-107.498c-9.197,9.379 -18.03,20.261 -26.499,32.645c-15.389,22.856 -29.14,46.305 -41.251,70.345c-5.737,11.565 -12.703,27 -20.899,46.305c-4.098,9.835 -8.833,14.752 -14.206,14.752c-1.366,0 -2.504,-0.592 -3.415,-1.776c-0.728,-0.82 -1.093,-1.821 -1.093,-3.005c0,-1.73 1.685,-6.465 5.054,-14.206c7.194,-17.028 12.703,-29.276 16.528,-36.743c19.578,-38.155 42.753,-74.033 69.525,-107.634c11.201,-14.023 18.941,-23.13 23.221,-27.318c4.462,-4.28 8.15,-6.42 11.064,-6.42c1.821,0 3.597,0.82 5.327,2.459c2.094,1.912 3.142,4.098 3.142,6.556c0,2.732 -1.912,7.239 -5.737,13.523c-10.927,17.848 -20.99,37.881 -30.187,60.1c-7.922,20.033 -13.022,37.016 -15.298,50.949Z" style="fill:#f7f7f7;fill-rule:nonzero;stroke:#f9f8f8;stroke-width:1px;"/><path d="M210.688,170.284c2.459,-0.728 4.28,-1.275 5.464,-1.639c21.035,-6.465 36.106,-9.698 45.212,-9.698c6.83,0 10.244,2.55 10.244,7.649c0,2.003 -0.774,3.779 -2.322,5.327c-1.548,1.548 -3.278,2.322 -5.19,2.322c-0.911,0 -2.231,-0.137 -3.961,-0.41c-1.457,-0.273 -2.641,-0.41 -3.551,-0.41c-5.373,0 -12.43,1.229 -21.172,3.688c-3.187,1.002 -9.334,3.551 -18.44,7.649c-6.101,2.732 -11.109,4.098 -15.025,4.098c-2.823,0 -5.145,-1.32 -6.966,-3.961c-1.73,-2.459 -2.595,-5.054 -2.595,-7.786c0,-3.369 1.867,-9.061 5.6,-17.074c11.383,-24.769 23.585,-46.988 36.607,-66.657c18.668,-28.229 33.146,-48.945 43.436,-62.149c2.823,-3.551 5.646,-7.148 8.469,-10.791c4.462,-6.01 8.332,-9.015 11.61,-9.015c1.639,0 3.096,0.637 4.371,1.912c1.184,1.275 1.776,2.595 1.776,3.961c0,2.003 -1.548,5.099 -4.644,9.288c-0.637,0.82 -4.416,5.782 -11.337,14.889c-12.931,17.028 -22.56,30.05 -28.889,39.065c-6.329,9.015 -13.09,19.442 -20.284,31.28c-14.114,23.221 -23.585,42.708 -28.411,58.461Z" style="fill:#f7f7f7;fill-rule:nonzero;stroke:#f9f8f8;stroke-width:1px;"/></g></g></svg>