<?xml version="1.0" encoding="UTF-8" standalone="no"?><!DOCTYPE svg PUBLIC "-//W3C//DTD SVG 1.1//EN" "http://www.w3.org/Graphics/SVG/1.1/DTD/svg11.dtd"><svg width="100%" height="100%" viewBox="0 0 664 99" version="1.1" xmlns="http://www.w3.org/2000/svg" xmlns:xlink="http://www.w3.org/1999/xlink" xml:space="preserve" xmlns:serif="http://www.serif.com/" style="fill-rule:evenodd;clip-rule:evenodd;stroke-linejoin:round;stroke-miterlimit:2;"><g><g><path d="M40.359,67.371c1.405,-2.064 4.656,-7.027 9.751,-14.889c4.348,-6.72 11.288,-16.405 20.819,-29.054c5.534,-7.335 10.541,-13.484 15.021,-18.447c2.679,-2.987 5.051,-4.48 7.115,-4.48c1.186,0 2.174,0.417 2.965,1.252c0.703,0.659 1.054,1.493 1.054,2.504c0,1.493 -0.9,3.843 -2.701,7.049c-0.351,0.659 -2.152,3.843 -5.402,9.553c-5.798,10.278 -9.729,17.613 -11.793,22.005c-5.666,12.035 -9.816,22.29 -12.452,30.767c-1.537,5.051 -2.306,8.762 -2.306,11.134c0,0.527 0.044,1.076 0.132,1.647c0.22,1.713 0.329,2.723 0.329,3.031c0,1.274 -0.483,2.46 -1.449,3.558c-0.835,1.01 -1.779,1.515 -2.833,1.515c-1.23,0 -2.24,-0.725 -3.031,-2.174c-0.659,-1.098 -0.988,-2.635 -0.988,-4.612c0,-12.43 10.366,-36.85 31.097,-73.261c-10.849,11.595 -22.861,28.198 -36.038,49.807c-2.899,4.7 -5.293,7.884 -7.181,9.553c-1.845,1.625 -3.602,2.438 -5.271,2.438c-1.669,0 -2.899,-0.725 -3.689,-2.174c-0.527,-0.966 -0.791,-2.086 -0.791,-3.36c0,-10.98 6.522,-28.264 19.567,-51.85c-4.436,4.524 -8.696,9.773 -12.781,15.746c-7.423,11.024 -14.055,22.334 -19.897,33.929c-2.767,5.578 -6.127,13.023 -10.08,22.334c-1.976,4.744 -4.26,7.115 -6.852,7.115c-0.659,0 -1.208,-0.285 -1.647,-0.856c-0.351,-0.395 -0.527,-0.878 -0.527,-1.449c0,-0.835 0.813,-3.118 2.438,-6.852c3.47,-8.213 6.127,-14.121 7.972,-17.722c9.443,-18.403 20.621,-35.708 33.534,-51.915c5.402,-6.764 9.136,-11.156 11.2,-13.176c2.152,-2.064 3.931,-3.096 5.336,-3.096c0.878,0 1.735,0.395 2.569,1.186c1.01,0.922 1.515,1.976 1.515,3.162c0,1.318 -0.922,3.492 -2.767,6.522c-5.271,8.609 -10.124,18.271 -14.56,28.988c-3.821,9.663 -6.281,17.854 -7.379,24.574Z" style="fill:#f4f3f3;fill-rule:nonzero;stroke:#f9f8f8;stroke-width:1px;"/><path d="M113.673,77.055c-1.449,2.547 -2.877,4.7 -4.282,6.456c-2.767,3.426 -5.512,5.139 -8.235,5.139c-2.372,0 -4.216,-1.12 -5.534,-3.36c-0.835,-1.449 -1.252,-3.162 -1.252,-5.139c0,-4.875 1.537,-10.256 4.612,-16.141c3.426,-6.544 7.555,-11.573 12.386,-15.087c3.162,-2.284 6.215,-3.426 9.158,-3.426c1.845,0 3.382,0.571 4.612,1.713c1.054,1.01 1.581,2.152 1.581,3.426c0,0.966 -0.373,2.306 -1.12,4.019c0.659,0.922 0.988,1.735 0.988,2.438c0,0.922 -0.615,2.438 -1.845,4.546c-1.274,2.152 -2.547,5.007 -3.821,8.565c-1.362,3.777 -2.042,6.808 -2.042,9.092c0,1.845 0.549,3.36 1.647,4.546c0.307,0.307 1.208,0.813 2.701,1.515c1.098,0.527 1.647,1.449 1.647,2.767c0,0.835 -0.307,1.515 -0.922,2.042c-0.659,0.571 -1.427,0.856 -2.306,0.856c-2.372,0 -4.414,-1.054 -6.127,-3.162c-1.405,-1.713 -2.108,-3.865 -2.108,-6.456c0,-0.878 0.088,-2.328 0.264,-4.348Zm8.235,-21.675c-0.527,-0.966 -1.098,-1.68 -1.713,-2.141c-0.615,-0.461 -1.274,-0.692 -1.976,-0.692c-3.338,0 -6.962,2.921 -10.871,8.762c-4.304,6.456 -6.456,11.925 -6.456,16.405c0,1.098 0.209,1.933 0.626,2.504c0.417,0.571 1.043,0.856 1.878,0.856c2.108,0 4.568,-2.24 7.379,-6.72c1.581,-2.46 3.536,-6.083 5.864,-10.871c1.537,-3.118 2.657,-5.183 3.36,-6.193c0.351,-0.527 0.988,-1.164 1.911,-1.911Z" style="fill:#f4f3f3;fill-rule:nonzero;stroke:#f9f8f8;stroke-width:1px;"/><path d="M154.705,66.251c4.304,-4.612 9.267,-9.114 14.889,-13.506c2.02,-1.581 4.173,-3.053 6.456,-4.414c1.142,-0.659 1.867,-0.988 2.174,-0.988c0.659,0 1.318,0.483 1.976,1.449c0.395,0.527 0.593,1.01 0.593,1.449c0,0.791 -0.835,1.867 -2.504,3.228c-4.48,3.558 -6.72,6.237 -6.72,8.038c0,1.01 0.571,1.515 1.713,1.515c1.889,0 5.139,-1.559 9.751,-4.678c0.791,-0.527 1.449,-0.791 1.976,-0.791c0.351,0 0.703,0.176 1.054,0.527c0.395,0.395 0.593,0.813 0.593,1.252c0,1.318 -1.845,3.338 -5.534,6.061c-3.865,2.899 -7.533,4.348 -11.002,4.348c-1.405,0 -2.701,-0.373 -3.887,-1.12c-1.01,-0.615 -1.515,-1.713 -1.515,-3.294c0,-1.098 0.461,-2.35 1.384,-3.755c-3.47,2.46 -7.555,6.676 -12.254,12.649c-2.723,3.689 -5.424,8.235 -8.104,13.638c-1.01,2.02 -2.262,3.031 -3.755,3.031c-1.625,0 -2.438,-0.769 -2.438,-2.306c0,-1.493 1.274,-5.49 3.821,-11.991c3.777,-9.663 7.73,-17.151 11.859,-22.466c2.547,-3.294 4.678,-4.941 6.391,-4.941c0.571,0 1.098,0.176 1.581,0.527c0.571,0.439 0.856,0.988 0.856,1.647c0,0.659 -0.439,1.581 -1.318,2.767c-0.176,0.22 -1.34,1.691 -3.492,4.414c-1.976,2.591 -3.492,5.161 -4.546,7.708Z" style="fill:#f4f3f3;fill-rule:nonzero;stroke:#f9f8f8;stroke-width:1px;"/><path d="M221.562,45.498c-2.855,4.436 -5.49,9.399 -7.906,14.889c-3.47,7.818 -5.205,13.66 -5.205,17.525c0,1.098 0.231,1.933 0.692,2.504c0.461,0.571 1.153,0.856 2.075,0.856c2.196,0 4.853,-2.064 7.972,-6.193c1.976,-2.547 3.733,-5.095 5.271,-7.642c0.835,-1.449 1.735,-2.174 2.701,-2.174c0.571,0 1.054,0.198 1.449,0.593c0.351,0.395 0.527,0.791 0.527,1.186c0,1.625 -2.13,5.249 -6.391,10.871c-5.095,6.764 -9.751,10.146 -13.967,10.146c-2.24,0 -4.107,-1.032 -5.6,-3.096c-0.922,-1.318 -1.384,-3.184 -1.384,-5.6c0,-5.315 1.537,-11.507 4.612,-18.579c0.747,-1.757 2.811,-5.995 6.193,-12.715c-1.186,0.307 -2.086,0.461 -2.701,0.461c-0.922,0 -1.735,-0.22 -2.438,-0.659c-0.966,-0.615 -1.449,-1.384 -1.449,-2.306c0,-1.098 0.637,-1.976 1.911,-2.635c0.351,-0.176 1.976,-0.461 4.875,-0.856c1.054,-0.176 2.591,-0.593 4.612,-1.252c1.537,-2.767 4.041,-6.522 7.511,-11.266c1.933,-2.635 3.272,-4.348 4.019,-5.139c1.054,-1.098 1.976,-1.647 2.767,-1.647c0.571,0 1.142,0.307 1.713,0.922c0.527,0.571 0.791,1.142 0.791,1.713c0,1.142 -1.23,3.404 -3.689,6.786c-1.625,2.196 -2.833,3.975 -3.624,5.336c4.875,-1.318 8.367,-1.976 10.475,-1.976c2.416,0 3.624,1.01 3.624,3.031c0,1.01 -0.417,1.757 -1.252,2.24c-0.439,0.264 -1.581,0.483 -3.426,0.659c-0.747,-0.044 -4.063,0.791 -9.948,2.504c-1.625,0.483 -3.228,0.988 -4.809,1.515Z" style="fill:#f4f3f3;fill-rule:nonzero;stroke:#f9f8f8;stroke-width:1px;"/><path d="M261.144,48.462c0.747,0 1.362,0.285 1.845,0.856c0.351,0.483 0.527,0.966 0.527,1.449c0,0.791 -0.637,2.108 -1.911,3.953c-4.568,7.071 -7.818,12.891 -9.751,17.459c-2.064,4.7 -3.887,9.531 -5.468,14.494c-0.703,2.196 -1.801,3.294 -3.294,3.294c-0.878,0 -1.581,-0.351 -2.108,-1.054c-0.483,-0.571 -0.725,-1.186 -0.725,-1.845c0,-1.318 1.405,-5.71 4.216,-13.176c2.196,-5.886 5.754,-12.386 10.673,-19.501c1.581,-2.328 2.767,-3.887 3.558,-4.678c0.791,-0.835 1.603,-1.252 2.438,-1.252Zm12.518,-24.442c1.976,0 2.965,1.01 2.965,3.031c0,1.845 -0.966,3.887 -2.899,6.127c-1.845,2.152 -3.624,3.228 -5.336,3.228c-0.835,0 -1.515,-0.307 -2.042,-0.922c-0.527,-0.571 -0.791,-1.274 -0.791,-2.108c0,-2.108 1.164,-4.348 3.492,-6.72c1.713,-1.757 3.25,-2.635 4.612,-2.635Z" style="fill:#f4f3f3;fill-rule:nonzero;stroke:#f9f8f8;stroke-width:1px;"/><path d="M287.352,65.328c0.571,-0.527 1.12,-1.054 1.647,-1.581c9.18,-8.96 15.329,-13.44 18.447,-13.44c1.713,0 2.569,0.944 2.569,2.833c0,1.318 -0.769,2.877 -2.306,4.678c-8.389,9.795 -12.584,18.425 -12.584,25.892c0,2.416 0.659,4.722 1.976,6.918c0.615,1.01 0.922,1.801 0.922,2.372c0,0.527 -0.264,1.032 -0.791,1.515c-0.571,0.615 -1.252,0.922 -2.042,0.922c-1.801,0 -3.316,-1.142 -4.546,-3.426c-1.186,-2.152 -1.779,-4.766 -1.779,-7.84c0,-5.929 2.24,-12.496 6.72,-19.699c-5.973,3.821 -11.529,10.585 -16.668,20.292c-1.318,2.328 -2.723,3.492 -4.216,3.492c-0.747,0 -1.362,-0.264 -1.845,-0.791c-0.615,-0.615 -0.922,-1.405 -0.922,-2.372c0,-2.372 2.701,-8.587 8.104,-18.645c2.899,-5.446 5.183,-9.399 6.852,-11.859c1.669,-2.416 3.096,-3.624 4.282,-3.624c0.571,0 1.12,0.264 1.647,0.791c0.615,0.615 0.922,1.318 0.922,2.108c0,0.966 -0.637,2.35 -1.911,4.151c-1.845,2.679 -3.338,5.117 -4.48,7.313Z" style="fill:#f4f3f3;fill-rule:nonzero;stroke:#f9f8f8;stroke-width:1px;"/><path d="M330.953,82.392c1.186,-0.351 2.064,-0.615 2.635,-0.791c10.146,-3.118 17.415,-4.678 21.807,-4.678c3.294,0 4.941,1.23 4.941,3.689c0,0.966 -0.373,1.823 -1.12,2.569c-0.747,0.747 -1.581,1.12 -2.504,1.12c-0.439,0 -1.076,-0.066 -1.911,-0.198c-0.703,-0.132 -1.274,-0.198 -1.713,-0.198c-2.591,0 -5.995,0.593 -10.212,1.779c-1.537,0.483 -4.502,1.713 -8.894,3.689c-2.943,1.318 -5.358,1.976 -7.247,1.976c-1.362,0 -2.482,-0.637 -3.36,-1.911c-0.835,-1.186 -1.252,-2.438 -1.252,-3.755c0,-1.625 0.9,-4.37 2.701,-8.235c5.49,-11.947 11.376,-22.664 17.657,-32.151c9.004,-13.616 15.987,-23.608 20.951,-29.977c1.362,-1.713 2.723,-3.448 4.085,-5.205c2.152,-2.899 4.019,-4.348 5.6,-4.348c0.791,0 1.493,0.307 2.108,0.922c0.571,0.615 0.856,1.252 0.856,1.911c0,0.966 -0.747,2.46 -2.24,4.48c-0.307,0.395 -2.13,2.789 -5.468,7.181c-6.237,8.213 -10.882,14.494 -13.934,18.842c-3.053,4.348 -6.314,9.377 -9.784,15.087c-6.808,11.2 -11.376,20.599 -13.704,28.198Z" style="fill:#f4f3f3;fill-rule:nonzero;stroke:#f9f8f8;stroke-width:1px;"/><path d="M397.943,77.055c-1.449,2.547 -2.877,4.7 -4.282,6.456c-2.767,3.426 -5.512,5.139 -8.235,5.139c-2.372,0 -4.216,-1.12 -5.534,-3.36c-0.835,-1.449 -1.252,-3.162 -1.252,-5.139c0,-4.875 1.537,-10.256 4.612,-16.141c3.426,-6.544 7.555,-11.573 12.386,-15.087c3.162,-2.284 6.215,-3.426 9.158,-3.426c1.845,0 3.382,0.571 4.612,1.713c1.054,1.01 1.581,2.152 1.581,3.426c0,0.966 -0.373,2.306 -1.12,4.019c0.659,0.922 0.988,1.735 0.988,2.438c0,0.922 -0.615,2.438 -1.845,4.546c-1.274,2.152 -2.547,5.007 -3.821,8.565c-1.362,3.777 -2.042,6.808 -2.042,9.092c0,1.845 0.549,3.36 1.647,4.546c0.307,0.307 1.208,0.813 2.701,1.515c1.098,0.527 1.647,1.449 1.647,2.767c0,0.835 -0.307,1.515 -0.922,2.042c-0.659,0.571 -1.427,0.856 -2.306,0.856c-2.372,0 -4.414,-1.054 -6.127,-3.162c-1.405,-1.713 -2.108,-3.865 -2.108,-6.456c0,-0.878 0.088,-2.328 0.264,-4.348Zm8.235,-21.675c-0.527,-0.966 -1.098,-1.68 -1.713,-2.141c-0.615,-0.461 -1.274,-0.692 -1.976,-0.692c-3.338,0 -6.962,2.921 -10.871,8.762c-4.304,6.456 -6.456,11.925 -6.456,16.405c0,1.098 0.209,1.933 0.626,2.504c0.417,0.571 1.043,0.856 1.878,0.856c2.108,0 4.568,-2.24 7.379,-6.72c1.581,-2.46 3.536,-6.083 5.864,-10.871c1.537,-3.118 2.657,-5.183 3.36,-6.193c0.351,-0.527 0.988,-1.164 1.911,-1.911Z" style="fill:#f4f3f3;fill-rule:nonzero;stroke:#f9f8f8;stroke-width:1px;"/><path d="M438.974,66.251c4.304,-4.612 9.267,-9.114 14.889,-13.506c2.02,-1.581 4.173,-3.053 6.456,-4.414c1.142,-0.659 1.867,-0.988 2.174,-0.988c0.659,0 1.318,0.483 1.976,1.449c0.395,0.527 0.593,1.01 0.593,1.449c0,0.791 -0.835,1.867 -2.504,3.228c-4.48,3.558 -6.72,6.237 -6.72,8.038c0,1.01 0.571,1.515 1.713,1.515c1.889,0 5.139,-1.559 9.751,-4.678c0.791,-0.527 1.449,-0.791 1.976,-0.791c0.351,0 0.703,0.176 1.054,0.527c0.395,0.395 0.593,0.813 0.593,1.252c0,1.318 -1.845,3.338 -5.534,6.061c-3.865,2.899 -7.533,4.348 -11.002,4.348c-1.405,0 -2.701,-0.373 -3.887,-1.12c-1.01,-0.615 -1.515,-1.713 -1.515,-3.294c0,-1.098 0.461,-2.35 1.384,-3.755c-3.47,2.46 -7.555,6.676 -12.254,12.649c-2.723,3.689 -5.424,8.235 -8.104,13.638c-1.01,2.02 -2.262,3.031 -3.755,3.031c-1.625,0 -2.438,-0.769 -2.438,-2.306c0,-1.493 1.274,-5.49 3.821,-11.991c3.777,-9.663 7.73,-17.151 11.859,-22.466c2.547,-3.294 4.678,-4.941 6.391,-4.941c0.571,0 1.098,0.176 1.581,0.527c0.571,0.439 0.856,0.988 0.856,1.647c0,0.659 -0.439,1.581 -1.318,2.767c-0.176,0.22 -1.34,1.691 -3.492,4.414c-1.976,2.591 -3.492,5.161 -4.546,7.708Z" style="fill:#f4f3f3;fill-rule:nonzero;stroke:#f9f8f8;stroke-width:1px;"/><path d="M511.959,44.18c2.723,0 4.766,0.483 6.127,1.449c1.362,0.966 2.042,2.438 2.042,4.414c0,2.591 -0.966,5.095 -2.899,7.511c-1.845,2.284 -4.612,4.129 -8.301,5.534c-2.02,0.747 -3.711,1.12 -5.073,1.12c-1.845,0 -2.767,-0.813 -2.767,-2.438c0,-1.098 0.527,-1.933 1.581,-2.504c0.264,-0.132 1.757,-0.505 4.48,-1.12c1.625,-0.351 3.118,-1.12 4.48,-2.306c1.186,-1.01 1.779,-2.108 1.779,-3.294c0,-0.922 -0.264,-1.603 -0.791,-2.042c-0.527,-0.439 -1.318,-0.659 -2.372,-0.659c-2.547,0 -5.358,1.032 -8.433,3.096c-3.558,2.328 -5.336,5.095 -5.336,8.301c0,2.284 1.164,5.139 3.492,8.565c2.591,3.733 3.887,6.896 3.887,9.487c0,3.865 -1.713,6.896 -5.139,9.092c-2.108,1.362 -4.502,2.042 -7.181,2.042c-4.216,0 -7.423,-1.515 -9.619,-4.546c-1.537,-2.152 -2.306,-4.7 -2.306,-7.642c0,-3.426 0.878,-6.303 2.635,-8.631c1.142,-1.537 2.328,-2.306 3.558,-2.306c1.098,0 1.647,0.439 1.647,1.318c0,0.351 -0.198,0.878 -0.593,1.581c-1.01,1.889 -1.515,4.107 -1.515,6.654c0,2.152 0.769,3.975 2.306,5.468c1.362,1.318 2.921,1.976 4.678,1.976c1.713,0 3.053,-0.571 4.019,-1.713c0.791,-0.966 1.186,-2.196 1.186,-3.689c0,-1.845 -1.054,-4.238 -3.162,-7.181c-2.899,-4.041 -4.348,-7.708 -4.348,-11.002c0,-4.392 2.394,-8.279 7.181,-11.661c4.656,-3.25 9.575,-4.875 14.758,-4.875Z" style="fill:#f4f3f3;fill-rule:nonzero;stroke:#f9f8f8;stroke-width:1px;"/><path d="M559.776,44.18c2.723,0 4.766,0.483 6.127,1.449c1.362,0.966 2.042,2.438 2.042,4.414c0,2.591 -0.966,5.095 -2.899,7.511c-1.845,2.284 -4.612,4.129 -8.301,5.534c-2.02,0.747 -3.711,1.12 -5.073,1.12c-1.845,0 -2.767,-0.813 -2.767,-2.438c0,-1.098 0.527,-1.933 1.581,-2.504c0.264,-0.132 1.757,-0.505 4.48,-1.12c1.625,-0.351 3.118,-1.12 4.48,-2.306c1.186,-1.01 1.779,-2.108 1.779,-3.294c0,-0.922 -0.264,-1.603 -0.791,-2.042c-0.527,-0.439 -1.318,-0.659 -2.372,-0.659c-2.547,0 -5.358,1.032 -8.433,3.096c-3.558,2.328 -5.336,5.095 -5.336,8.301c0,2.284 1.164,5.139 3.492,8.565c2.591,3.733 3.887,6.896 3.887,9.487c0,3.865 -1.713,6.896 -5.139,9.092c-2.108,1.362 -4.502,2.042 -7.181,2.042c-4.216,0 -7.423,-1.515 -9.619,-4.546c-1.537,-2.152 -2.306,-4.7 -2.306,-7.642c0,-3.426 0.878,-6.303 2.635,-8.631c1.142,-1.537 2.328,-2.306 3.558,-2.306c1.098,0 1.647,0.439 1.647,1.318c0,0.351 -0.198,0.878 -0.593,1.581c-1.01,1.889 -1.515,4.107 -1.515,6.654c0,2.152 0.769,3.975 2.306,5.468c1.362,1.318 2.921,1.976 4.678,1.976c1.713,0 3.053,-0.571 4.019,-1.713c0.791,-0.966 1.186,-2.196 1.186,-3.689c0,-1.845 -1.054,-4.238 -3.162,-7.181c-2.899,-4.041 -4.348,-7.708 -4.348,-11.002c0,-4.392 2.394,-8.279 7.181,-11.661c4.656,-3.25 9.575,-4.875 14.758,-4.875Z" style="fill:#f4f3f3;fill-rule:nonzero;stroke:#f9f8f8;stroke-width:1px;"/><path d="M582.493,75.277l0,1.186c0,0.966 0.242,1.801 0.725,2.504c1.098,1.625 2.899,2.438 5.402,2.438c5.49,0 11.837,-4.216 19.04,-12.649c1.274,-1.449 2.35,-2.174 3.228,-2.174c0.483,0 0.922,0.242 1.318,0.725c0.264,0.351 0.395,0.681 0.395,0.988c0,1.713 -2.108,4.612 -6.325,8.696c-3.294,3.206 -6.808,5.82 -10.541,7.84c-3.733,2.02 -7.203,3.031 -10.409,3.031c-3.294,0 -5.886,-1.142 -7.774,-3.426c-1.274,-1.581 -1.911,-3.733 -1.911,-6.456c0,-7.423 3.492,-14.692 10.475,-21.807c5.666,-5.798 10.607,-8.696 14.824,-8.696c1.142,0 2.174,0.351 3.096,1.054c1.142,0.922 1.713,2.13 1.713,3.624c0,2.328 -1.076,5.183 -3.228,8.565c-4.436,7.027 -11.112,11.881 -20.028,14.56Zm1.449,-5.139c3.075,-1.054 5.49,-2.24 7.247,-3.558c3.075,-2.372 5.512,-5.051 7.313,-8.038c0.659,-1.054 0.988,-1.998 0.988,-2.833c0,-0.878 -0.417,-1.318 -1.252,-1.318c-1.142,0 -2.767,0.856 -4.875,2.569c-3.777,3.031 -6.918,7.423 -9.421,13.176Z" style="fill:#f4f3f3;fill-rule:nonzero;stroke:#f9f8f8;stroke-width:1px;"/><path d="M640.061,65.328c0.571,-0.527 1.12,-1.054 1.647,-1.581c9.18,-8.96 15.329,-13.44 18.447,-13.44c1.713,0 2.569,0.944 2.569,2.833c0,1.318 -0.769,2.877 -2.306,4.678c-8.389,9.795 -12.584,18.425 -12.584,25.892c0,2.416 0.659,4.722 1.976,6.918c0.615,1.01 0.922,1.801 0.922,2.372c0,0.527 -0.264,1.032 -0.791,1.515c-0.571,0.615 -1.252,0.922 -2.042,0.922c-1.801,0 -3.316,-1.142 -4.546,-3.426c-1.186,-2.152 -1.779,-4.766 -1.779,-7.84c0,-5.929 2.24,-12.496 6.72,-19.699c-5.973,3.821 -11.529,10.585 -16.668,20.292c-1.318,2.328 -2.723,3.492 -4.216,3.492c-0.747,0 -1.362,-0.264 -1.845,-0.791c-0.615,-0.615 -0.922,-1.405 -0.922,-2.372c0,-2.372 2.701,-8.587 8.104,-18.645c2.899,-5.446 5.183,-9.399 6.852,-11.859c1.669,-2.416 3.096,-3.624 4.282,-3.624c0.571,0 1.12,0.264 1.647,0.791c0.615,0.615 0.922,1.318 0.922,2.108c0,0.966 -0.637,2.35 -1.911,4.151c-1.845,2.679 -3.338,5.117 -4.48,7.313Z" style="fill:#f4f3f3;fill-rule:nonzero;stroke:#f9f8f8;stroke-width:1px;"/></g></g></svg>